D:\school\WTK\thesis\model\3dpredictsim\Results\batch_windlass\Pog_s1_tmt_bCst_d00_k500_WL10_ig24_pas_GRF.mot
nRows=12
nColumns=19

name D:\school\WTK\thesis\model\3dpredictsim\Results\batch_windlass\Pog_s1_tmt_bCst_d00_k500_WL10_ig24_pas_GRF.mot
datacolumns 19
datarows 12
range 0.5313699291 0.6482713135
endheader
time 	ground_force_vx	ground_force_vy	ground_force_vz	ground_force_px	ground_force_py	ground_force_pz	1_ground_force_vx	1_ground_force_vy	1_ground_force_vz	1_ground_force_px	1_ground_force_py	1_ground_force_pz	ground_torque_x	ground_torque_y	ground_torque_z	1_ground_torque_x	1_ground_torque_y	1_ground_torque_z
        0.5313699291	      112.4068709542	      487.8526937229	       -2.1047150653	        0.3291892447	        0.0000000000	        0.0373111813	      -79.2133264638	       57.5977136071	      -18.5127538980	        0.7940038977	        0.0000000000	       -0.0453295552	        0.0000000000	        0.0000000000	        0.0000000000	        0.0000000000	        0.0000000000	        0.0000000000	
        0.5419973277	       92.9931351512	      399.6565045937	        0.0961722981	        0.3337179475	        0.0000000000	        0.0356805663	     -127.7037018564	      114.3336878181	      -36.3182110004	        0.8088431976	        0.0000000000	       -0.0442607274	        0.0000000000	        0.0000000000	        0.0000000000	        0.0000000000	        0.0000000000	        0.0000000000	
        0.5526247263	       63.5922877074	      298.8309076087	        9.5083500750	        0.3411411219	        0.0000000000	        0.0326953159	     -133.3171341956	      247.5157440280	      -48.4382494011	        0.8258212168	        0.0000000000	       -0.0448560471	        0.0000000000	        0.0000000000	        0.0000000000	        0.0000000000	        0.0000000000	        0.0000000000	
        0.5632521249	       31.9030086819	      197.1743750494	       12.4651566677	        0.3544574254	        0.0000000000	        0.0262189259	      -89.3153392889	      499.2483640814	       -9.6932495048	        0.8377309086	        0.0000000000	       -0.0438771019	        0.0000000000	        0.0000000000	        0.0000000000	        0.0000000000	        0.0000000000	        0.0000000000	
        0.5738795235	        9.9415697509	      151.1065918534	       16.3303855156	        0.3614485259	        0.0000000000	        0.0221821904	     -111.9939196425	      764.8822175102	        5.6233040203	        0.8496129179	        0.0000000000	       -0.0426306772	        0.0000000000	        0.0000000000	        0.0000000000	        0.0000000000	        0.0000000000	        0.0000000000	
        0.5845069220	        4.3100727587	      115.8531940433	       17.5733907834	        0.3616737014	        0.0000000000	        0.0223358938	     -126.3678069224	      892.7862020264	        8.9589336281	        0.8556834826	        0.0000000000	       -0.0417359387	        0.0000000000	        0.0000000000	        0.0000000000	        0.0000000000	        0.0000000000	        0.0000000000	
        0.5951343206	       -2.5016428784	       74.3265137220	       14.2381277150	        0.3618161618	        0.0000000000	        0.0222482868	     -123.4779950681	      898.6729994229	        9.2801081577	        0.8594324171	        0.0000000000	       -0.0410845570	        0.0000000000	        0.0000000000	        0.0000000000	        0.0000000000	        0.0000000000	        0.0000000000	
        0.6057617192	       -8.9059145458	       27.3142697364	        6.1432922648	        0.3609638218	        0.0000000000	        0.0218910045	     -113.3022612682	      863.2138545505	        7.3662190004	        0.8624323843	        0.0000000000	       -0.0405881662	        0.0000000000	        0.0000000000	        0.0000000000	        0.0000000000	        0.0000000000	        0.0000000000	
        0.6163891178	        0.0818155190	       -0.0859707151	       -0.0125309010	        0.0000000000	        0.0000000000	        0.0000000000	     -100.6922943896	      823.1726301766	        7.0986409914	        0.8651274517	        0.0000000000	       -0.0401980457	        0.0000000000	        0.0000000000	        0.0000000000	        0.0000000000	        0.0000000000	        0.0000000000	
        0.6270165164	        0.0001087570	       -0.0000953146	       -0.0000035157	        0.0000000000	        0.0000000000	        0.0000000000	      -88.0304886244	      784.8264549940	        8.9433391861	        0.8677853830	        0.0000000000	       -0.0398919274	        0.0000000000	        0.0000000000	        0.0000000000	        0.0000000000	        0.0000000000	        0.0000000000	
        0.6376439150	        0.0000053567	       -0.0000040179	        0.0000000656	        0.0000000000	        0.0000000000	        0.0000000000	      -75.2259426088	      751.0182762630	       10.5977808428	        0.8704404376	        0.0000000000	       -0.0397061036	        0.0000000000	        0.0000000000	        0.0000000000	        0.0000000000	        0.0000000000	        0.0000000000	
        0.6482713135	        0.0000128993	       -0.0000084745	        0.0000005020	        0.0000000000	        0.0000000000	        0.0000000000	      -62.8101634883	      720.3852991524	       12.8399961778	        0.8740759700	        0.0000000000	       -0.0395808456	        0.0000000000	        0.0000000000	        0.0000000000	        0.0000000000	        0.0000000000	        0.0000000000	
